<?xml version="1.0" encoding="utf-8"?>
<svg width="392" height="392" viewBox="0 0 392 392"
		 xmlns="http://www.w3.org/2000/svg" xmlns:xlink="http://www.w3.org/1999/xlink" xmlns:ev="http://www.w3.org/2001/xml-events">
<rect x="0" y="0" width="392" height="392" fill="#ffffff"/>
<defs>
<rect id="p" width="8" height="8"/>
</defs>
<g fill="#000000">
<use xlink:href="#p" x="32" y="32"/>
<use xlink:href="#p" x="32" y="40"/>
<use xlink:href="#p" x="32" y="48"/>
<use xlink:href="#p" x="32" y="56"/>
<use xlink:href="#p" x="32" y="64"/>
<use xlink:href="#p" x="32" y="72"/>
<use xlink:href="#p" x="32" y="80"/>
<use xlink:href="#p" x="32" y="96"/>
<use xlink:href="#p" x="32" y="104"/>
<use xlink:href="#p" x="32" y="112"/>
<use xlink:href="#p" x="32" y="128"/>
<use xlink:href="#p" x="32" y="136"/>
<use xlink:href="#p" x="32" y="152"/>
<use xlink:href="#p" x="32" y="160"/>
<use xlink:href="#p" x="32" y="192"/>
<use xlink:href="#p" x="32" y="208"/>
<use xlink:href="#p" x="32" y="216"/>
<use xlink:href="#p" x="32" y="224"/>
<use xlink:href="#p" x="32" y="232"/>
<use xlink:href="#p" x="32" y="240"/>
<use xlink:href="#p" x="32" y="304"/>
<use xlink:href="#p" x="32" y="312"/>
<use xlink:href="#p" x="32" y="320"/>
<use xlink:href="#p" x="32" y="328"/>
<use xlink:href="#p" x="32" y="336"/>
<use xlink:href="#p" x="32" y="344"/>
<use xlink:href="#p" x="32" y="352"/>
<use xlink:href="#p" x="40" y="32"/>
<use xlink:href="#p" x="40" y="80"/>
<use xlink:href="#p" x="40" y="96"/>
<use xlink:href="#p" x="40" y="112"/>
<use xlink:href="#p" x="40" y="120"/>
<use xlink:href="#p" x="40" y="168"/>
<use xlink:href="#p" x="40" y="176"/>
<use xlink:href="#p" x="40" y="184"/>
<use xlink:href="#p" x="40" y="192"/>
<use xlink:href="#p" x="40" y="208"/>
<use xlink:href="#p" x="40" y="216"/>
<use xlink:href="#p" x="40" y="232"/>
<use xlink:href="#p" x="40" y="272"/>
<use xlink:href="#p" x="40" y="280"/>
<use xlink:href="#p" x="40" y="288"/>
<use xlink:href="#p" x="40" y="304"/>
<use xlink:href="#p" x="40" y="352"/>
<use xlink:href="#p" x="48" y="32"/>
<use xlink:href="#p" x="48" y="48"/>
<use xlink:href="#p" x="48" y="56"/>
<use xlink:href="#p" x="48" y="64"/>
<use xlink:href="#p" x="48" y="80"/>
<use xlink:href="#p" x="48" y="96"/>
<use xlink:href="#p" x="48" y="112"/>
<use xlink:href="#p" x="48" y="120"/>
<use xlink:href="#p" x="48" y="128"/>
<use xlink:href="#p" x="48" y="136"/>
<use xlink:href="#p" x="48" y="160"/>
<use xlink:href="#p" x="48" y="176"/>
<use xlink:href="#p" x="48" y="184"/>
<use xlink:href="#p" x="48" y="200"/>
<use xlink:href="#p" x="48" y="216"/>
<use xlink:href="#p" x="48" y="224"/>
<use xlink:href="#p" x="48" y="232"/>
<use xlink:href="#p" x="48" y="256"/>
<use xlink:href="#p" x="48" y="264"/>
<use xlink:href="#p" x="48" y="280"/>
<use xlink:href="#p" x="48" y="304"/>
<use xlink:href="#p" x="48" y="320"/>
<use xlink:href="#p" x="48" y="328"/>
<use xlink:href="#p" x="48" y="336"/>
<use xlink:href="#p" x="48" y="352"/>
<use xlink:href="#p" x="56" y="32"/>
<use xlink:href="#p" x="56" y="48"/>
<use xlink:href="#p" x="56" y="56"/>
<use xlink:href="#p" x="56" y="64"/>
<use xlink:href="#p" x="56" y="80"/>
<use xlink:href="#p" x="56" y="96"/>
<use xlink:href="#p" x="56" y="104"/>
<use xlink:href="#p" x="56" y="128"/>
<use xlink:href="#p" x="56" y="136"/>
<use xlink:href="#p" x="56" y="144"/>
<use xlink:href="#p" x="56" y="168"/>
<use xlink:href="#p" x="56" y="176"/>
<use xlink:href="#p" x="56" y="192"/>
<use xlink:href="#p" x="56" y="200"/>
<use xlink:href="#p" x="56" y="216"/>
<use xlink:href="#p" x="56" y="224"/>
<use xlink:href="#p" x="56" y="240"/>
<use xlink:href="#p" x="56" y="248"/>
<use xlink:href="#p" x="56" y="272"/>
<use xlink:href="#p" x="56" y="280"/>
<use xlink:href="#p" x="56" y="288"/>
<use xlink:href="#p" x="56" y="304"/>
<use xlink:href="#p" x="56" y="320"/>
<use xlink:href="#p" x="56" y="328"/>
<use xlink:href="#p" x="56" y="336"/>
<use xlink:href="#p" x="56" y="352"/>
<use xlink:href="#p" x="64" y="32"/>
<use xlink:href="#p" x="64" y="48"/>
<use xlink:href="#p" x="64" y="56"/>
<use xlink:href="#p" x="64" y="64"/>
<use xlink:href="#p" x="64" y="80"/>
<use xlink:href="#p" x="64" y="96"/>
<use xlink:href="#p" x="64" y="104"/>
<use xlink:href="#p" x="64" y="120"/>
<use xlink:href="#p" x="64" y="128"/>
<use xlink:href="#p" x="64" y="152"/>
<use xlink:href="#p" x="64" y="200"/>
<use xlink:href="#p" x="64" y="208"/>
<use xlink:href="#p" x="64" y="216"/>
<use xlink:href="#p" x="64" y="240"/>
<use xlink:href="#p" x="64" y="248"/>
<use xlink:href="#p" x="64" y="264"/>
<use xlink:href="#p" x="64" y="272"/>
<use xlink:href="#p" x="64" y="280"/>
<use xlink:href="#p" x="64" y="304"/>
<use xlink:href="#p" x="64" y="320"/>
<use xlink:href="#p" x="64" y="328"/>
<use xlink:href="#p" x="64" y="336"/>
<use xlink:href="#p" x="64" y="352"/>
<use xlink:href="#p" x="72" y="32"/>
<use xlink:href="#p" x="72" y="80"/>
<use xlink:href="#p" x="72" y="104"/>
<use xlink:href="#p" x="72" y="136"/>
<use xlink:href="#p" x="72" y="144"/>
<use xlink:href="#p" x="72" y="160"/>
<use xlink:href="#p" x="72" y="184"/>
<use xlink:href="#p" x="72" y="192"/>
<use xlink:href="#p" x="72" y="216"/>
<use xlink:href="#p" x="72" y="224"/>
<use xlink:href="#p" x="72" y="240"/>
<use xlink:href="#p" x="72" y="248"/>
<use xlink:href="#p" x="72" y="264"/>
<use xlink:href="#p" x="72" y="272"/>
<use xlink:href="#p" x="72" y="304"/>
<use xlink:href="#p" x="72" y="352"/>
<use xlink:href="#p" x="80" y="32"/>
<use xlink:href="#p" x="80" y="40"/>
<use xlink:href="#p" x="80" y="48"/>
<use xlink:href="#p" x="80" y="56"/>
<use xlink:href="#p" x="80" y="64"/>
<use xlink:href="#p" x="80" y="72"/>
<use xlink:href="#p" x="80" y="80"/>
<use xlink:href="#p" x="80" y="96"/>
<use xlink:href="#p" x="80" y="112"/>
<use xlink:href="#p" x="80" y="128"/>
<use xlink:href="#p" x="80" y="144"/>
<use xlink:href="#p" x="80" y="160"/>
<use xlink:href="#p" x="80" y="176"/>
<use xlink:href="#p" x="80" y="192"/>
<use xlink:href="#p" x="80" y="208"/>
<use xlink:href="#p" x="80" y="224"/>
<use xlink:href="#p" x="80" y="240"/>
<use xlink:href="#p" x="80" y="256"/>
<use xlink:href="#p" x="80" y="272"/>
<use xlink:href="#p" x="80" y="288"/>
<use xlink:href="#p" x="80" y="304"/>
<use xlink:href="#p" x="80" y="312"/>
<use xlink:href="#p" x="80" y="320"/>
<use xlink:href="#p" x="80" y="328"/>
<use xlink:href="#p" x="80" y="336"/>
<use xlink:href="#p" x="80" y="344"/>
<use xlink:href="#p" x="80" y="352"/>
<use xlink:href="#p" x="88" y="96"/>
<use xlink:href="#p" x="88" y="104"/>
<use xlink:href="#p" x="88" y="120"/>
<use xlink:href="#p" x="88" y="136"/>
<use xlink:href="#p" x="88" y="176"/>
<use xlink:href="#p" x="88" y="184"/>
<use xlink:href="#p" x="88" y="200"/>
<use xlink:href="#p" x="88" y="208"/>
<use xlink:href="#p" x="88" y="240"/>
<use xlink:href="#p" x="88" y="248"/>
<use xlink:href="#p" x="88" y="264"/>
<use xlink:href="#p" x="88" y="272"/>
<use xlink:href="#p" x="88" y="288"/>
<use xlink:href="#p" x="96" y="40"/>
<use xlink:href="#p" x="96" y="56"/>
<use xlink:href="#p" x="96" y="72"/>
<use xlink:href="#p" x="96" y="80"/>
<use xlink:href="#p" x="96" y="96"/>
<use xlink:href="#p" x="96" y="128"/>
<use xlink:href="#p" x="96" y="136"/>
<use xlink:href="#p" x="96" y="176"/>
<use xlink:href="#p" x="96" y="192"/>
<use xlink:href="#p" x="96" y="200"/>
<use xlink:href="#p" x="96" y="216"/>
<use xlink:href="#p" x="96" y="232"/>
<use xlink:href="#p" x="96" y="240"/>
<use xlink:href="#p" x="96" y="248"/>
<use xlink:href="#p" x="96" y="256"/>
<use xlink:href="#p" x="96" y="264"/>
<use xlink:href="#p" x="96" y="280"/>
<use xlink:href="#p" x="96" y="288"/>
<use xlink:href="#p" x="96" y="296"/>
<use xlink:href="#p" x="96" y="304"/>
<use xlink:href="#p" x="96" y="320"/>
<use xlink:href="#p" x="96" y="328"/>
<use xlink:href="#p" x="96" y="336"/>
<use xlink:href="#p" x="96" y="344"/>
<use xlink:href="#p" x="96" y="352"/>
<use xlink:href="#p" x="104" y="32"/>
<use xlink:href="#p" x="104" y="48"/>
<use xlink:href="#p" x="104" y="56"/>
<use xlink:href="#p" x="104" y="72"/>
<use xlink:href="#p" x="104" y="88"/>
<use xlink:href="#p" x="104" y="96"/>
<use xlink:href="#p" x="104" y="104"/>
<use xlink:href="#p" x="104" y="120"/>
<use xlink:href="#p" x="104" y="128"/>
<use xlink:href="#p" x="104" y="136"/>
<use xlink:href="#p" x="104" y="144"/>
<use xlink:href="#p" x="104" y="152"/>
<use xlink:href="#p" x="104" y="192"/>
<use xlink:href="#p" x="104" y="200"/>
<use xlink:href="#p" x="104" y="232"/>
<use xlink:href="#p" x="104" y="272"/>
<use xlink:href="#p" x="104" y="280"/>
<use xlink:href="#p" x="104" y="312"/>
<use xlink:href="#p" x="104" y="328"/>
<use xlink:href="#p" x="104" y="352"/>
<use xlink:href="#p" x="112" y="64"/>
<use xlink:href="#p" x="112" y="72"/>
<use xlink:href="#p" x="112" y="80"/>
<use xlink:href="#p" x="112" y="88"/>
<use xlink:href="#p" x="112" y="128"/>
<use xlink:href="#p" x="112" y="136"/>
<use xlink:href="#p" x="112" y="144"/>
<use xlink:href="#p" x="112" y="152"/>
<use xlink:href="#p" x="112" y="168"/>
<use xlink:href="#p" x="112" y="176"/>
<use xlink:href="#p" x="112" y="200"/>
<use xlink:href="#p" x="112" y="216"/>
<use xlink:href="#p" x="112" y="232"/>
<use xlink:href="#p" x="112" y="240"/>
<use xlink:href="#p" x="112" y="256"/>
<use xlink:href="#p" x="112" y="288"/>
<use xlink:href="#p" x="112" y="296"/>
<use xlink:href="#p" x="112" y="312"/>
<use xlink:href="#p" x="112" y="320"/>
<use xlink:href="#p" x="112" y="344"/>
<use xlink:href="#p" x="112" y="352"/>
<use xlink:href="#p" x="120" y="32"/>
<use xlink:href="#p" x="120" y="40"/>
<use xlink:href="#p" x="120" y="48"/>
<use xlink:href="#p" x="120" y="56"/>
<use xlink:href="#p" x="120" y="96"/>
<use xlink:href="#p" x="120" y="168"/>
<use xlink:href="#p" x="120" y="208"/>
<use xlink:href="#p" x="120" y="216"/>
<use xlink:href="#p" x="120" y="224"/>
<use xlink:href="#p" x="120" y="232"/>
<use xlink:href="#p" x="120" y="248"/>
<use xlink:href="#p" x="120" y="296"/>
<use xlink:href="#p" x="120" y="312"/>
<use xlink:href="#p" x="120" y="320"/>
<use xlink:href="#p" x="120" y="336"/>
<use xlink:href="#p" x="120" y="344"/>
<use xlink:href="#p" x="120" y="352"/>
<use xlink:href="#p" x="128" y="32"/>
<use xlink:href="#p" x="128" y="40"/>
<use xlink:href="#p" x="128" y="48"/>
<use xlink:href="#p" x="128" y="56"/>
<use xlink:href="#p" x="128" y="72"/>
<use xlink:href="#p" x="128" y="80"/>
<use xlink:href="#p" x="128" y="96"/>
<use xlink:href="#p" x="128" y="112"/>
<use xlink:href="#p" x="128" y="136"/>
<use xlink:href="#p" x="128" y="152"/>
<use xlink:href="#p" x="128" y="184"/>
<use xlink:href="#p" x="128" y="192"/>
<use xlink:href="#p" x="128" y="208"/>
<use xlink:href="#p" x="128" y="224"/>
<use xlink:href="#p" x="128" y="240"/>
<use xlink:href="#p" x="128" y="248"/>
<use xlink:href="#p" x="128" y="264"/>
<use xlink:href="#p" x="128" y="280"/>
<use xlink:href="#p" x="128" y="320"/>
<use xlink:href="#p" x="128" y="336"/>
<use xlink:href="#p" x="128" y="352"/>
<use xlink:href="#p" x="136" y="64"/>
<use xlink:href="#p" x="136" y="72"/>
<use xlink:href="#p" x="136" y="96"/>
<use xlink:href="#p" x="136" y="104"/>
<use xlink:href="#p" x="136" y="112"/>
<use xlink:href="#p" x="136" y="120"/>
<use xlink:href="#p" x="136" y="136"/>
<use xlink:href="#p" x="136" y="160"/>
<use xlink:href="#p" x="136" y="224"/>
<use xlink:href="#p" x="136" y="232"/>
<use xlink:href="#p" x="136" y="240"/>
<use xlink:href="#p" x="136" y="248"/>
<use xlink:href="#p" x="136" y="264"/>
<use xlink:href="#p" x="136" y="288"/>
<use xlink:href="#p" x="136" y="328"/>
<use xlink:href="#p" x="136" y="336"/>
<use xlink:href="#p" x="136" y="352"/>
<use xlink:href="#p" x="144" y="48"/>
<use xlink:href="#p" x="144" y="64"/>
<use xlink:href="#p" x="144" y="72"/>
<use xlink:href="#p" x="144" y="80"/>
<use xlink:href="#p" x="144" y="88"/>
<use xlink:href="#p" x="144" y="96"/>
<use xlink:href="#p" x="144" y="112"/>
<use xlink:href="#p" x="144" y="128"/>
<use xlink:href="#p" x="144" y="144"/>
<use xlink:href="#p" x="144" y="152"/>
<use xlink:href="#p" x="144" y="160"/>
<use xlink:href="#p" x="144" y="184"/>
<use xlink:href="#p" x="144" y="200"/>
<use xlink:href="#p" x="144" y="216"/>
<use xlink:href="#p" x="144" y="224"/>
<use xlink:href="#p" x="144" y="240"/>
<use xlink:href="#p" x="144" y="256"/>
<use xlink:href="#p" x="144" y="280"/>
<use xlink:href="#p" x="144" y="288"/>
<use xlink:href="#p" x="144" y="312"/>
<use xlink:href="#p" x="144" y="328"/>
<use xlink:href="#p" x="144" y="336"/>
<use xlink:href="#p" x="152" y="40"/>
<use xlink:href="#p" x="152" y="56"/>
<use xlink:href="#p" x="152" y="64"/>
<use xlink:href="#p" x="152" y="112"/>
<use xlink:href="#p" x="152" y="120"/>
<use xlink:href="#p" x="152" y="128"/>
<use xlink:href="#p" x="152" y="136"/>
<use xlink:href="#p" x="152" y="144"/>
<use xlink:href="#p" x="152" y="152"/>
<use xlink:href="#p" x="152" y="160"/>
<use xlink:href="#p" x="152" y="176"/>
<use xlink:href="#p" x="152" y="192"/>
<use xlink:href="#p" x="152" y="200"/>
<use xlink:href="#p" x="152" y="240"/>
<use xlink:href="#p" x="152" y="248"/>
<use xlink:href="#p" x="152" y="256"/>
<use xlink:href="#p" x="152" y="264"/>
<use xlink:href="#p" x="152" y="272"/>
<use xlink:href="#p" x="152" y="280"/>
<use xlink:href="#p" x="152" y="288"/>
<use xlink:href="#p" x="152" y="304"/>
<use xlink:href="#p" x="152" y="320"/>
<use xlink:href="#p" x="152" y="328"/>
<use xlink:href="#p" x="160" y="40"/>
<use xlink:href="#p" x="160" y="64"/>
<use xlink:href="#p" x="160" y="80"/>
<use xlink:href="#p" x="160" y="88"/>
<use xlink:href="#p" x="160" y="96"/>
<use xlink:href="#p" x="160" y="104"/>
<use xlink:href="#p" x="160" y="120"/>
<use xlink:href="#p" x="160" y="128"/>
<use xlink:href="#p" x="160" y="144"/>
<use xlink:href="#p" x="160" y="160"/>
<use xlink:href="#p" x="160" y="168"/>
<use xlink:href="#p" x="160" y="176"/>
<use xlink:href="#p" x="160" y="200"/>
<use xlink:href="#p" x="160" y="216"/>
<use xlink:href="#p" x="160" y="232"/>
<use xlink:href="#p" x="160" y="240"/>
<use xlink:href="#p" x="160" y="256"/>
<use xlink:href="#p" x="160" y="272"/>
<use xlink:href="#p" x="160" y="296"/>
<use xlink:href="#p" x="160" y="312"/>
<use xlink:href="#p" x="160" y="328"/>
<use xlink:href="#p" x="160" y="344"/>
<use xlink:href="#p" x="168" y="64"/>
<use xlink:href="#p" x="168" y="72"/>
<use xlink:href="#p" x="168" y="96"/>
<use xlink:href="#p" x="168" y="104"/>
<use xlink:href="#p" x="168" y="112"/>
<use xlink:href="#p" x="168" y="120"/>
<use xlink:href="#p" x="168" y="160"/>
<use xlink:href="#p" x="168" y="208"/>
<use xlink:href="#p" x="168" y="224"/>
<use xlink:href="#p" x="168" y="232"/>
<use xlink:href="#p" x="168" y="240"/>
<use xlink:href="#p" x="168" y="248"/>
<use xlink:href="#p" x="168" y="288"/>
<use xlink:href="#p" x="168" y="328"/>
<use xlink:href="#p" x="168" y="352"/>
<use xlink:href="#p" x="176" y="32"/>
<use xlink:href="#p" x="176" y="40"/>
<use xlink:href="#p" x="176" y="56"/>
<use xlink:href="#p" x="176" y="80"/>
<use xlink:href="#p" x="176" y="104"/>
<use xlink:href="#p" x="176" y="120"/>
<use xlink:href="#p" x="176" y="136"/>
<use xlink:href="#p" x="176" y="144"/>
<use xlink:href="#p" x="176" y="176"/>
<use xlink:href="#p" x="176" y="192"/>
<use xlink:href="#p" x="176" y="208"/>
<use xlink:href="#p" x="176" y="216"/>
<use xlink:href="#p" x="176" y="248"/>
<use xlink:href="#p" x="176" y="264"/>
<use xlink:href="#p" x="176" y="280"/>
<use xlink:href="#p" x="176" y="296"/>
<use xlink:href="#p" x="176" y="304"/>
<use xlink:href="#p" x="176" y="320"/>
<use xlink:href="#p" x="176" y="336"/>
<use xlink:href="#p" x="184" y="32"/>
<use xlink:href="#p" x="184" y="48"/>
<use xlink:href="#p" x="184" y="72"/>
<use xlink:href="#p" x="184" y="88"/>
<use xlink:href="#p" x="184" y="96"/>
<use xlink:href="#p" x="184" y="104"/>
<use xlink:href="#p" x="184" y="120"/>
<use xlink:href="#p" x="184" y="168"/>
<use xlink:href="#p" x="184" y="184"/>
<use xlink:href="#p" x="184" y="192"/>
<use xlink:href="#p" x="184" y="208"/>
<use xlink:href="#p" x="184" y="216"/>
<use xlink:href="#p" x="184" y="224"/>
<use xlink:href="#p" x="184" y="232"/>
<use xlink:href="#p" x="184" y="248"/>
<use xlink:href="#p" x="184" y="256"/>
<use xlink:href="#p" x="184" y="296"/>
<use xlink:href="#p" x="184" y="312"/>
<use xlink:href="#p" x="184" y="320"/>
<use xlink:href="#p" x="184" y="336"/>
<use xlink:href="#p" x="184" y="344"/>
<use xlink:href="#p" x="184" y="352"/>
<use xlink:href="#p" x="192" y="40"/>
<use xlink:href="#p" x="192" y="64"/>
<use xlink:href="#p" x="192" y="80"/>
<use xlink:href="#p" x="192" y="88"/>
<use xlink:href="#p" x="192" y="96"/>
<use xlink:href="#p" x="192" y="104"/>
<use xlink:href="#p" x="192" y="128"/>
<use xlink:href="#p" x="192" y="144"/>
<use xlink:href="#p" x="192" y="168"/>
<use xlink:href="#p" x="192" y="176"/>
<use xlink:href="#p" x="192" y="184"/>
<use xlink:href="#p" x="192" y="200"/>
<use xlink:href="#p" x="192" y="216"/>
<use xlink:href="#p" x="192" y="232"/>
<use xlink:href="#p" x="192" y="256"/>
<use xlink:href="#p" x="192" y="272"/>
<use xlink:href="#p" x="192" y="296"/>
<use xlink:href="#p" x="192" y="304"/>
<use xlink:href="#p" x="192" y="312"/>
<use xlink:href="#p" x="192" y="328"/>
<use xlink:href="#p" x="192" y="344"/>
<use xlink:href="#p" x="200" y="48"/>
<use xlink:href="#p" x="200" y="64"/>
<use xlink:href="#p" x="200" y="88"/>
<use xlink:href="#p" x="200" y="120"/>
<use xlink:href="#p" x="200" y="136"/>
<use xlink:href="#p" x="200" y="144"/>
<use xlink:href="#p" x="200" y="152"/>
<use xlink:href="#p" x="200" y="168"/>
<use xlink:href="#p" x="200" y="184"/>
<use xlink:href="#p" x="200" y="192"/>
<use xlink:href="#p" x="200" y="200"/>
<use xlink:href="#p" x="200" y="216"/>
<use xlink:href="#p" x="200" y="256"/>
<use xlink:href="#p" x="200" y="272"/>
<use xlink:href="#p" x="200" y="280"/>
<use xlink:href="#p" x="200" y="296"/>
<use xlink:href="#p" x="200" y="304"/>
<use xlink:href="#p" x="200" y="312"/>
<use xlink:href="#p" x="200" y="320"/>
<use xlink:href="#p" x="200" y="328"/>
<use xlink:href="#p" x="200" y="336"/>
<use xlink:href="#p" x="200" y="344"/>
<use xlink:href="#p" x="208" y="32"/>
<use xlink:href="#p" x="208" y="56"/>
<use xlink:href="#p" x="208" y="80"/>
<use xlink:href="#p" x="208" y="104"/>
<use xlink:href="#p" x="208" y="112"/>
<use xlink:href="#p" x="208" y="120"/>
<use xlink:href="#p" x="208" y="128"/>
<use xlink:href="#p" x="208" y="144"/>
<use xlink:href="#p" x="208" y="168"/>
<use xlink:href="#p" x="208" y="216"/>
<use xlink:href="#p" x="208" y="232"/>
<use xlink:href="#p" x="208" y="240"/>
<use xlink:href="#p" x="208" y="256"/>
<use xlink:href="#p" x="208" y="280"/>
<use xlink:href="#p" x="208" y="296"/>
<use xlink:href="#p" x="208" y="312"/>
<use xlink:href="#p" x="208" y="328"/>
<use xlink:href="#p" x="208" y="336"/>
<use xlink:href="#p" x="216" y="32"/>
<use xlink:href="#p" x="216" y="48"/>
<use xlink:href="#p" x="216" y="64"/>
<use xlink:href="#p" x="216" y="96"/>
<use xlink:href="#p" x="216" y="104"/>
<use xlink:href="#p" x="216" y="120"/>
<use xlink:href="#p" x="216" y="136"/>
<use xlink:href="#p" x="216" y="160"/>
<use xlink:href="#p" x="216" y="168"/>
<use xlink:href="#p" x="216" y="200"/>
<use xlink:href="#p" x="216" y="216"/>
<use xlink:href="#p" x="216" y="224"/>
<use xlink:href="#p" x="216" y="232"/>
<use xlink:href="#p" x="216" y="248"/>
<use xlink:href="#p" x="216" y="256"/>
<use xlink:href="#p" x="216" y="264"/>
<use xlink:href="#p" x="216" y="288"/>
<use xlink:href="#p" x="216" y="296"/>
<use xlink:href="#p" x="216" y="312"/>
<use xlink:href="#p" x="216" y="328"/>
<use xlink:href="#p" x="224" y="32"/>
<use xlink:href="#p" x="224" y="40"/>
<use xlink:href="#p" x="224" y="48"/>
<use xlink:href="#p" x="224" y="56"/>
<use xlink:href="#p" x="224" y="80"/>
<use xlink:href="#p" x="224" y="104"/>
<use xlink:href="#p" x="224" y="112"/>
<use xlink:href="#p" x="224" y="128"/>
<use xlink:href="#p" x="224" y="136"/>
<use xlink:href="#p" x="224" y="152"/>
<use xlink:href="#p" x="224" y="168"/>
<use xlink:href="#p" x="224" y="232"/>
<use xlink:href="#p" x="224" y="256"/>
<use xlink:href="#p" x="224" y="272"/>
<use xlink:href="#p" x="224" y="288"/>
<use xlink:href="#p" x="224" y="296"/>
<use xlink:href="#p" x="224" y="312"/>
<use xlink:href="#p" x="224" y="320"/>
<use xlink:href="#p" x="224" y="336"/>
<use xlink:href="#p" x="224" y="344"/>
<use xlink:href="#p" x="232" y="32"/>
<use xlink:href="#p" x="232" y="40"/>
<use xlink:href="#p" x="232" y="56"/>
<use xlink:href="#p" x="232" y="64"/>
<use xlink:href="#p" x="232" y="72"/>
<use xlink:href="#p" x="232" y="96"/>
<use xlink:href="#p" x="232" y="112"/>
<use xlink:href="#p" x="232" y="128"/>
<use xlink:href="#p" x="232" y="136"/>
<use xlink:href="#p" x="232" y="144"/>
<use xlink:href="#p" x="232" y="160"/>
<use xlink:href="#p" x="232" y="168"/>
<use xlink:href="#p" x="232" y="192"/>
<use xlink:href="#p" x="232" y="224"/>
<use xlink:href="#p" x="232" y="256"/>
<use xlink:href="#p" x="232" y="272"/>
<use xlink:href="#p" x="232" y="288"/>
<use xlink:href="#p" x="232" y="320"/>
<use xlink:href="#p" x="232" y="352"/>
<use xlink:href="#p" x="240" y="40"/>
<use xlink:href="#p" x="240" y="48"/>
<use xlink:href="#p" x="240" y="56"/>
<use xlink:href="#p" x="240" y="72"/>
<use xlink:href="#p" x="240" y="80"/>
<use xlink:href="#p" x="240" y="88"/>
<use xlink:href="#p" x="240" y="96"/>
<use xlink:href="#p" x="240" y="136"/>
<use xlink:href="#p" x="240" y="160"/>
<use xlink:href="#p" x="240" y="176"/>
<use xlink:href="#p" x="240" y="184"/>
<use xlink:href="#p" x="240" y="192"/>
<use xlink:href="#p" x="240" y="208"/>
<use xlink:href="#p" x="240" y="216"/>
<use xlink:href="#p" x="240" y="224"/>
<use xlink:href="#p" x="240" y="240"/>
<use xlink:href="#p" x="240" y="256"/>
<use xlink:href="#p" x="240" y="280"/>
<use xlink:href="#p" x="240" y="288"/>
<use xlink:href="#p" x="240" y="296"/>
<use xlink:href="#p" x="240" y="304"/>
<use xlink:href="#p" x="240" y="312"/>
<use xlink:href="#p" x="240" y="320"/>
<use xlink:href="#p" x="240" y="328"/>
<use xlink:href="#p" x="240" y="336"/>
<use xlink:href="#p" x="240" y="352"/>
<use xlink:href="#p" x="248" y="40"/>
<use xlink:href="#p" x="248" y="56"/>
<use xlink:href="#p" x="248" y="72"/>
<use xlink:href="#p" x="248" y="112"/>
<use xlink:href="#p" x="248" y="120"/>
<use xlink:href="#p" x="248" y="128"/>
<use xlink:href="#p" x="248" y="144"/>
<use xlink:href="#p" x="248" y="176"/>
<use xlink:href="#p" x="248" y="208"/>
<use xlink:href="#p" x="248" y="240"/>
<use xlink:href="#p" x="248" y="248"/>
<use xlink:href="#p" x="248" y="256"/>
<use xlink:href="#p" x="248" y="272"/>
<use xlink:href="#p" x="248" y="304"/>
<use xlink:href="#p" x="248" y="320"/>
<use xlink:href="#p" x="248" y="336"/>
<use xlink:href="#p" x="248" y="352"/>
<use xlink:href="#p" x="256" y="32"/>
<use xlink:href="#p" x="256" y="64"/>
<use xlink:href="#p" x="256" y="80"/>
<use xlink:href="#p" x="256" y="96"/>
<use xlink:href="#p" x="256" y="104"/>
<use xlink:href="#p" x="256" y="136"/>
<use xlink:href="#p" x="256" y="144"/>
<use xlink:href="#p" x="256" y="152"/>
<use xlink:href="#p" x="256" y="160"/>
<use xlink:href="#p" x="256" y="168"/>
<use xlink:href="#p" x="256" y="176"/>
<use xlink:href="#p" x="256" y="184"/>
<use xlink:href="#p" x="256" y="192"/>
<use xlink:href="#p" x="256" y="216"/>
<use xlink:href="#p" x="256" y="248"/>
<use xlink:href="#p" x="256" y="264"/>
<use xlink:href="#p" x="256" y="272"/>
<use xlink:href="#p" x="256" y="280"/>
<use xlink:href="#p" x="256" y="288"/>
<use xlink:href="#p" x="256" y="312"/>
<use xlink:href="#p" x="256" y="328"/>
<use xlink:href="#p" x="256" y="336"/>
<use xlink:href="#p" x="256" y="352"/>
<use xlink:href="#p" x="264" y="40"/>
<use xlink:href="#p" x="264" y="56"/>
<use xlink:href="#p" x="264" y="64"/>
<use xlink:href="#p" x="264" y="72"/>
<use xlink:href="#p" x="264" y="96"/>
<use xlink:href="#p" x="264" y="104"/>
<use xlink:href="#p" x="264" y="128"/>
<use xlink:href="#p" x="264" y="160"/>
<use xlink:href="#p" x="264" y="176"/>
<use xlink:href="#p" x="264" y="192"/>
<use xlink:href="#p" x="264" y="224"/>
<use xlink:href="#p" x="264" y="232"/>
<use xlink:href="#p" x="264" y="240"/>
<use xlink:href="#p" x="264" y="256"/>
<use xlink:href="#p" x="264" y="264"/>
<use xlink:href="#p" x="264" y="288"/>
<use xlink:href="#p" x="264" y="296"/>
<use xlink:href="#p" x="264" y="304"/>
<use xlink:href="#p" x="264" y="320"/>
<use xlink:href="#p" x="264" y="328"/>
<use xlink:href="#p" x="264" y="336"/>
<use xlink:href="#p" x="264" y="352"/>
<use xlink:href="#p" x="272" y="32"/>
<use xlink:href="#p" x="272" y="48"/>
<use xlink:href="#p" x="272" y="64"/>
<use xlink:href="#p" x="272" y="80"/>
<use xlink:href="#p" x="272" y="104"/>
<use xlink:href="#p" x="272" y="112"/>
<use xlink:href="#p" x="272" y="136"/>
<use xlink:href="#p" x="272" y="144"/>
<use xlink:href="#p" x="272" y="192"/>
<use xlink:href="#p" x="272" y="200"/>
<use xlink:href="#p" x="272" y="208"/>
<use xlink:href="#p" x="272" y="216"/>
<use xlink:href="#p" x="272" y="232"/>
<use xlink:href="#p" x="272" y="248"/>
<use xlink:href="#p" x="272" y="264"/>
<use xlink:href="#p" x="272" y="272"/>
<use xlink:href="#p" x="272" y="288"/>
<use xlink:href="#p" x="272" y="296"/>
<use xlink:href="#p" x="272" y="304"/>
<use xlink:href="#p" x="272" y="312"/>
<use xlink:href="#p" x="280" y="32"/>
<use xlink:href="#p" x="280" y="56"/>
<use xlink:href="#p" x="280" y="64"/>
<use xlink:href="#p" x="280" y="88"/>
<use xlink:href="#p" x="280" y="96"/>
<use xlink:href="#p" x="280" y="104"/>
<use xlink:href="#p" x="280" y="120"/>
<use xlink:href="#p" x="280" y="128"/>
<use xlink:href="#p" x="280" y="136"/>
<use xlink:href="#p" x="280" y="152"/>
<use xlink:href="#p" x="280" y="160"/>
<use xlink:href="#p" x="280" y="168"/>
<use xlink:href="#p" x="280" y="184"/>
<use xlink:href="#p" x="280" y="200"/>
<use xlink:href="#p" x="280" y="216"/>
<use xlink:href="#p" x="280" y="232"/>
<use xlink:href="#p" x="280" y="248"/>
<use xlink:href="#p" x="280" y="256"/>
<use xlink:href="#p" x="280" y="288"/>
<use xlink:href="#p" x="280" y="304"/>
<use xlink:href="#p" x="280" y="352"/>
<use xlink:href="#p" x="288" y="40"/>
<use xlink:href="#p" x="288" y="48"/>
<use xlink:href="#p" x="288" y="64"/>
<use xlink:href="#p" x="288" y="80"/>
<use xlink:href="#p" x="288" y="88"/>
<use xlink:href="#p" x="288" y="104"/>
<use xlink:href="#p" x="288" y="112"/>
<use xlink:href="#p" x="288" y="120"/>
<use xlink:href="#p" x="288" y="136"/>
<use xlink:href="#p" x="288" y="144"/>
<use xlink:href="#p" x="288" y="152"/>
<use xlink:href="#p" x="288" y="168"/>
<use xlink:href="#p" x="288" y="176"/>
<use xlink:href="#p" x="288" y="200"/>
<use xlink:href="#p" x="288" y="208"/>
<use xlink:href="#p" x="288" y="232"/>
<use xlink:href="#p" x="288" y="248"/>
<use xlink:href="#p" x="288" y="264"/>
<use xlink:href="#p" x="288" y="272"/>
<use xlink:href="#p" x="288" y="288"/>
<use xlink:href="#p" x="288" y="296"/>
<use xlink:href="#p" x="288" y="304"/>
<use xlink:href="#p" x="288" y="312"/>
<use xlink:href="#p" x="288" y="320"/>
<use xlink:href="#p" x="288" y="328"/>
<use xlink:href="#p" x="288" y="344"/>
<use xlink:href="#p" x="296" y="96"/>
<use xlink:href="#p" x="296" y="112"/>
<use xlink:href="#p" x="296" y="136"/>
<use xlink:href="#p" x="296" y="152"/>
<use xlink:href="#p" x="296" y="168"/>
<use xlink:href="#p" x="296" y="176"/>
<use xlink:href="#p" x="296" y="184"/>
<use xlink:href="#p" x="296" y="200"/>
<use xlink:href="#p" x="296" y="216"/>
<use xlink:href="#p" x="296" y="232"/>
<use xlink:href="#p" x="296" y="240"/>
<use xlink:href="#p" x="296" y="264"/>
<use xlink:href="#p" x="296" y="272"/>
<use xlink:href="#p" x="296" y="288"/>
<use xlink:href="#p" x="296" y="320"/>
<use xlink:href="#p" x="296" y="336"/>
<use xlink:href="#p" x="296" y="352"/>
<use xlink:href="#p" x="304" y="32"/>
<use xlink:href="#p" x="304" y="40"/>
<use xlink:href="#p" x="304" y="48"/>
<use xlink:href="#p" x="304" y="56"/>
<use xlink:href="#p" x="304" y="64"/>
<use xlink:href="#p" x="304" y="72"/>
<use xlink:href="#p" x="304" y="80"/>
<use xlink:href="#p" x="304" y="104"/>
<use xlink:href="#p" x="304" y="112"/>
<use xlink:href="#p" x="304" y="168"/>
<use xlink:href="#p" x="304" y="184"/>
<use xlink:href="#p" x="304" y="200"/>
<use xlink:href="#p" x="304" y="208"/>
<use xlink:href="#p" x="304" y="232"/>
<use xlink:href="#p" x="304" y="240"/>
<use xlink:href="#p" x="304" y="264"/>
<use xlink:href="#p" x="304" y="288"/>
<use xlink:href="#p" x="304" y="304"/>
<use xlink:href="#p" x="304" y="320"/>
<use xlink:href="#p" x="304" y="336"/>
<use xlink:href="#p" x="304" y="344"/>
<use xlink:href="#p" x="312" y="32"/>
<use xlink:href="#p" x="312" y="80"/>
<use xlink:href="#p" x="312" y="96"/>
<use xlink:href="#p" x="312" y="104"/>
<use xlink:href="#p" x="312" y="112"/>
<use xlink:href="#p" x="312" y="136"/>
<use xlink:href="#p" x="312" y="152"/>
<use xlink:href="#p" x="312" y="168"/>
<use xlink:href="#p" x="312" y="176"/>
<use xlink:href="#p" x="312" y="184"/>
<use xlink:href="#p" x="312" y="200"/>
<use xlink:href="#p" x="312" y="208"/>
<use xlink:href="#p" x="312" y="232"/>
<use xlink:href="#p" x="312" y="240"/>
<use xlink:href="#p" x="312" y="248"/>
<use xlink:href="#p" x="312" y="264"/>
<use xlink:href="#p" x="312" y="288"/>
<use xlink:href="#p" x="312" y="320"/>
<use xlink:href="#p" x="312" y="344"/>
<use xlink:href="#p" x="312" y="352"/>
<use xlink:href="#p" x="320" y="32"/>
<use xlink:href="#p" x="320" y="48"/>
<use xlink:href="#p" x="320" y="56"/>
<use xlink:href="#p" x="320" y="64"/>
<use xlink:href="#p" x="320" y="80"/>
<use xlink:href="#p" x="320" y="104"/>
<use xlink:href="#p" x="320" y="112"/>
<use xlink:href="#p" x="320" y="136"/>
<use xlink:href="#p" x="320" y="144"/>
<use xlink:href="#p" x="320" y="168"/>
<use xlink:href="#p" x="320" y="184"/>
<use xlink:href="#p" x="320" y="200"/>
<use xlink:href="#p" x="320" y="208"/>
<use xlink:href="#p" x="320" y="232"/>
<use xlink:href="#p" x="320" y="264"/>
<use xlink:href="#p" x="320" y="280"/>
<use xlink:href="#p" x="320" y="288"/>
<use xlink:href="#p" x="320" y="296"/>
<use xlink:href="#p" x="320" y="304"/>
<use xlink:href="#p" x="320" y="312"/>
<use xlink:href="#p" x="320" y="320"/>
<use xlink:href="#p" x="320" y="336"/>
<use xlink:href="#p" x="328" y="32"/>
<use xlink:href="#p" x="328" y="48"/>
<use xlink:href="#p" x="328" y="56"/>
<use xlink:href="#p" x="328" y="64"/>
<use xlink:href="#p" x="328" y="80"/>
<use xlink:href="#p" x="328" y="96"/>
<use xlink:href="#p" x="328" y="104"/>
<use xlink:href="#p" x="328" y="120"/>
<use xlink:href="#p" x="328" y="128"/>
<use xlink:href="#p" x="328" y="144"/>
<use xlink:href="#p" x="328" y="152"/>
<use xlink:href="#p" x="328" y="184"/>
<use xlink:href="#p" x="328" y="192"/>
<use xlink:href="#p" x="328" y="200"/>
<use xlink:href="#p" x="328" y="216"/>
<use xlink:href="#p" x="328" y="240"/>
<use xlink:href="#p" x="328" y="256"/>
<use xlink:href="#p" x="328" y="264"/>
<use xlink:href="#p" x="328" y="328"/>
<use xlink:href="#p" x="328" y="336"/>
<use xlink:href="#p" x="328" y="344"/>
<use xlink:href="#p" x="336" y="32"/>
<use xlink:href="#p" x="336" y="48"/>
<use xlink:href="#p" x="336" y="56"/>
<use xlink:href="#p" x="336" y="64"/>
<use xlink:href="#p" x="336" y="80"/>
<use xlink:href="#p" x="336" y="128"/>
<use xlink:href="#p" x="336" y="136"/>
<use xlink:href="#p" x="336" y="160"/>
<use xlink:href="#p" x="336" y="192"/>
<use xlink:href="#p" x="336" y="200"/>
<use xlink:href="#p" x="336" y="224"/>
<use xlink:href="#p" x="336" y="240"/>
<use xlink:href="#p" x="336" y="256"/>
<use xlink:href="#p" x="336" y="288"/>
<use xlink:href="#p" x="336" y="296"/>
<use xlink:href="#p" x="336" y="304"/>
<use xlink:href="#p" x="336" y="320"/>
<use xlink:href="#p" x="336" y="328"/>
<use xlink:href="#p" x="336" y="336"/>
<use xlink:href="#p" x="344" y="32"/>
<use xlink:href="#p" x="344" y="80"/>
<use xlink:href="#p" x="344" y="96"/>
<use xlink:href="#p" x="344" y="104"/>
<use xlink:href="#p" x="344" y="152"/>
<use xlink:href="#p" x="344" y="184"/>
<use xlink:href="#p" x="344" y="192"/>
<use xlink:href="#p" x="344" y="216"/>
<use xlink:href="#p" x="344" y="224"/>
<use xlink:href="#p" x="344" y="232"/>
<use xlink:href="#p" x="344" y="264"/>
<use xlink:href="#p" x="344" y="280"/>
<use xlink:href="#p" x="344" y="296"/>
<use xlink:href="#p" x="344" y="304"/>
<use xlink:href="#p" x="344" y="328"/>
<use xlink:href="#p" x="344" y="344"/>
<use xlink:href="#p" x="352" y="32"/>
<use xlink:href="#p" x="352" y="40"/>
<use xlink:href="#p" x="352" y="48"/>
<use xlink:href="#p" x="352" y="56"/>
<use xlink:href="#p" x="352" y="64"/>
<use xlink:href="#p" x="352" y="72"/>
<use xlink:href="#p" x="352" y="80"/>
<use xlink:href="#p" x="352" y="104"/>
<use xlink:href="#p" x="352" y="136"/>
<use xlink:href="#p" x="352" y="168"/>
<use xlink:href="#p" x="352" y="184"/>
<use xlink:href="#p" x="352" y="200"/>
<use xlink:href="#p" x="352" y="224"/>
<use xlink:href="#p" x="352" y="232"/>
<use xlink:href="#p" x="352" y="248"/>
<use xlink:href="#p" x="352" y="256"/>
<use xlink:href="#p" x="352" y="264"/>
<use xlink:href="#p" x="352" y="288"/>
<use xlink:href="#p" x="352" y="296"/>
<use xlink:href="#p" x="352" y="312"/>
<use xlink:href="#p" x="352" y="328"/>
</g>
<g></g></svg>